<svg width="210" height="39" viewBox="0 0 210 39" fill="none" xmlns="http://www.w3.org/2000/svg">
<path d="M4.934 6.674L0.978 6.122V3.822H25.588L26.048 11.642H23.058L21.678 6.536L9.856 6.214V19.554L18.182 19.416L18.964 15.598H21.402V26.362H19.01L18.182 22.36L9.856 22.176V35.286L17.032 35.746V38H1.254V35.746L4.934 35.286V6.674ZM29.5505 31.1C29.5505 28.2173 30.9918 26.1013 33.8745 24.752C36.7571 23.372 40.4065 22.636 44.8225 22.544V21.256C44.8225 19.8147 44.6691 18.68 44.3625 17.852C44.0558 17.024 43.5191 16.426 42.7525 16.058C42.0165 15.6593 40.9585 15.46 39.5785 15.46C38.0145 15.46 36.6038 15.69 35.3465 16.15C34.1198 16.5793 32.8931 17.116 31.6665 17.76L30.5165 15.368C30.9151 15.0307 31.6511 14.586 32.7245 14.034C33.7978 13.482 35.0398 12.9913 36.4505 12.562C37.8611 12.1327 39.2718 11.918 40.6825 11.918C42.8598 11.918 44.5771 12.2247 45.8345 12.838C47.1225 13.4207 48.0425 14.3713 48.5945 15.69C49.1465 17.0087 49.4225 18.772 49.4225 20.98V35.746H52.1365V37.77C51.5231 37.9233 50.7411 38.0767 49.7905 38.23C48.8705 38.3833 48.0578 38.46 47.3525 38.46C46.4938 38.46 45.9111 38.322 45.6045 38.046C45.2978 37.8007 45.1445 37.2333 45.1445 36.344V34.826C44.2245 35.746 43.0898 36.5893 41.7405 37.356C40.4218 38.1227 38.9191 38.506 37.2325 38.506C35.0245 38.506 33.1845 37.8773 31.7125 36.62C30.2711 35.332 29.5505 33.492 29.5505 31.1ZM39.2105 35.378C40.0078 35.378 40.9278 35.1327 41.9705 34.642C43.0131 34.1513 43.9638 33.5687 44.8225 32.894V24.982C41.4798 24.982 38.9498 25.5033 37.2325 26.546C35.5458 27.558 34.7025 28.892 34.7025 30.548C34.7025 32.204 35.1011 33.4307 35.8985 34.228C36.7265 34.9947 37.8305 35.378 39.2105 35.378ZM53.1736 1.2L60.5336 0.325997H60.6256L61.6836 1.016V14.862C62.6036 13.9727 63.6923 13.2367 64.9496 12.654C66.2376 12.0713 67.6636 11.78 69.2276 11.78C71.0676 11.78 72.739 12.2247 74.2416 13.114C75.775 14.0033 76.9863 15.3833 77.8756 17.254C78.7956 19.1247 79.2556 21.486 79.2556 24.338C79.2556 26.9753 78.7036 29.3673 77.5996 31.514C76.5263 33.6607 74.9776 35.3627 72.9536 36.62C70.9296 37.8773 68.5836 38.506 65.9156 38.506C63.7996 38.506 61.8676 38.3067 60.1196 37.908C58.3716 37.4787 57.3136 37.0953 56.9456 36.758V3.638L53.1736 3.132V1.2ZM67.3416 15.046C66.1763 15.046 65.0876 15.322 64.0756 15.874C63.0943 16.3953 62.297 16.9933 61.6836 17.668V34.596C61.8676 35.0253 62.389 35.378 63.2476 35.654C64.137 35.8993 65.1336 36.022 66.2376 36.022C68.599 36.022 70.5003 35.0713 71.9416 33.17C73.383 31.2687 74.1036 28.4933 74.1036 24.844C74.1036 21.5627 73.475 19.1093 72.2176 17.484C70.9603 15.8587 69.335 15.046 67.3416 15.046ZM91.143 38.46C89.395 38.46 88.0917 38.0613 87.233 37.264C86.3744 36.4667 85.945 35.102 85.945 33.17V15.506H82.633V13.436C82.7864 13.4053 83.2157 13.298 83.921 13.114C84.6264 12.93 85.1017 12.7613 85.347 12.608C85.8377 12.332 86.221 11.78 86.497 10.952C86.7424 10.3693 87.0337 9.434 87.371 8.146C87.7084 6.858 87.9077 6.09133 87.969 5.846H90.683L90.775 12.47H98.457V15.506H90.775V29.628C90.775 31.376 90.821 32.6027 90.913 33.308C91.0357 34.0133 91.2657 34.4733 91.603 34.688C91.971 34.9027 92.5844 35.01 93.443 35.01C94.271 35.01 95.1757 34.9027 96.157 34.688C97.169 34.4733 97.951 34.2433 98.503 33.998L99.193 36.068C98.457 36.62 97.261 37.1567 95.605 37.678C93.9797 38.1993 92.4924 38.46 91.143 38.46ZM113.325 38.506C109.615 38.506 106.778 37.2947 104.815 34.872C102.883 32.4493 101.917 29.214 101.917 25.166C101.917 22.498 102.423 20.152 103.435 18.128C104.447 16.104 105.858 14.54 107.667 13.436C109.507 12.332 111.593 11.78 113.923 11.78C116.775 11.78 118.983 12.5773 120.547 14.172C122.142 15.736 122.985 17.99 123.077 20.934C123.077 22.8047 122.97 24.2307 122.755 25.212H106.931C106.993 28.248 107.698 30.7013 109.047 32.572C110.397 34.412 112.313 35.332 114.797 35.332C116.024 35.332 117.297 35.1173 118.615 34.688C119.965 34.228 121.007 33.6913 121.743 33.078L122.617 35.102C121.728 36.022 120.409 36.8193 118.661 37.494C116.913 38.1687 115.135 38.506 113.325 38.506ZM118.017 22.774C118.109 22.13 118.155 21.4707 118.155 20.796C118.125 18.8027 117.695 17.2387 116.867 16.104C116.07 14.9387 114.797 14.356 113.049 14.356C111.271 14.356 109.845 15 108.771 16.288C107.729 17.576 107.131 19.738 106.977 22.774H118.017ZM127.123 35.746L130.573 35.47V16.012L127.261 15.184V12.7L133.609 11.872H133.701L134.713 12.7V13.528L134.575 17.116H134.713C135.02 16.5947 135.572 15.92 136.369 15.092C137.166 14.264 138.194 13.5127 139.451 12.838C140.708 12.1327 142.073 11.78 143.545 11.78C144.158 11.78 144.664 11.8567 145.063 12.01V17.162C144.848 17.0087 144.496 16.8707 144.005 16.748C143.545 16.5947 143.024 16.518 142.441 16.518C139.896 16.518 137.534 17.3 135.357 18.864V35.424L141.199 35.792V38H127.123V35.746ZM153.527 7.87C152.546 7.87 151.81 7.594 151.319 7.042C150.829 6.49 150.583 5.78466 150.583 4.926C150.583 3.94466 150.875 3.132 151.457 2.488C152.071 1.844 152.899 1.522 153.941 1.522C154.984 1.522 155.751 1.798 156.241 2.35C156.732 2.902 156.977 3.60733 156.977 4.466C156.977 5.50866 156.671 6.33666 156.057 6.95C155.475 7.56333 154.647 7.87 153.573 7.87H153.527ZM151.687 16.012L148.191 15.184V12.746L155.321 11.872H155.413L156.471 12.7V35.378L160.151 35.746V38H147.961V35.746L151.687 35.332V16.012ZM163.418 25.166C163.418 22.406 163.985 20.014 165.12 17.99C166.254 15.966 167.742 14.4327 169.582 13.39C171.452 12.3167 173.446 11.78 175.562 11.78C179.426 11.78 182.324 13.0067 184.256 15.46C186.218 17.9133 187.2 21.1333 187.2 25.12C187.2 27.9107 186.632 30.318 185.498 32.342C184.363 34.366 182.86 35.8993 180.99 36.942C179.15 37.9847 177.172 38.506 175.056 38.506C171.192 38.506 168.278 37.2793 166.316 34.826C164.384 32.3727 163.418 29.1527 163.418 25.166ZM175.332 35.884C177.448 35.884 179.073 35.01 180.208 33.262C181.342 31.514 181.91 28.9227 181.91 25.488C181.91 22.084 181.388 19.3853 180.346 17.392C179.303 15.3987 177.632 14.402 175.332 14.402C173.216 14.402 171.575 15.276 170.41 17.024C169.275 18.772 168.708 21.3633 168.708 24.798C168.708 28.202 169.244 30.9007 170.318 32.894C171.391 34.8873 173.062 35.884 175.332 35.884ZM191.496 35.746L194.946 35.47V16.012L191.634 15.184V12.7L197.982 11.872H198.074L199.086 12.7V13.528L198.948 17.116H199.086C199.393 16.5947 199.945 15.92 200.742 15.092C201.539 14.264 202.567 13.5127 203.824 12.838C205.081 12.1327 206.446 11.78 207.918 11.78C208.531 11.78 209.037 11.8567 209.436 12.01V17.162C209.221 17.0087 208.869 16.8707 208.378 16.748C207.918 16.5947 207.397 16.518 206.814 16.518C204.269 16.518 201.907 17.3 199.73 18.864V35.424L205.572 35.792V38H191.496V35.746Z" fill="#1A202C"/>
</svg>
